<svg xmlns="http://www.w3.org/2000/svg" viewBox="0 0 99.6 122.23"><title>Asset 1</title><g id="Layer_2" data-name="Layer 2"><g id="Layer_1-2" data-name="Layer 1"><polygon id="_Path_" data-name="&lt;Path&gt;" points="89.7 51.3 79.9 68.4 60.1 68.4 40.4 68.4 20.6 68.4 30.5 51.3 40.4 34.2 50.3 51.3 60.1 34.2 70 51.3 79.9 34.2 70 17.1 60.1 0 50.3 17.1 40.4 0 30.5 17.1 20.6 34.2 10.8 51.3 0.9 68.4 10.8 85.5 30.5 85.5 50.3 85.5 70 85.5 89.7 85.5 99.6 68.4 89.7 51.3"/><path d="M18.7,122.23H14.9V109.51l-4.16,9.92H7.86L3.7,109.51v12.72H0V102.66H4.3l5.05,11.47,5.06-11.47H18.7Z"/><path d="M23,102.66h3.91v19.57H23Z"/><path d="M40.34,106.74a.49.49,0,0,0-.54-.55H35.12a.49.49,0,0,0-.54.55v2.33c0,.6.21.77.92.93l5.06,1.09c2.39.51,3.91,1.46,3.91,3.91v3.43c0,2.47-1.33,3.8-3.8,3.8H34.41c-2.47,0-3.8-1.33-3.8-3.8V116h3.8v2.18a.49.49,0,0,0,.55.54h5a.49.49,0,0,0,.55-.54V115.6c0-.6-.22-.76-.93-.92l-5.05-1.09c-2.4-.52-3.92-1.47-3.92-3.92v-3.21c0-2.47,1.33-3.8,3.81-3.8h5.87c2.47,0,3.81,1.33,3.81,3.8v2.23H40.34Z"/><path d="M53.55,114H52.11v8.26H48.19V102.66h3.92v7.83h1.47l5.32-7.83h4.46l-6.49,9.57,6.77,10H59Z"/><path d="M79.81,118.43c0,2.47-1.33,3.8-3.81,3.8H69.37c-2.47,0-3.81-1.33-3.81-3.8V102.66h3.92V118.1a.49.49,0,0,0,.54.54h5.33a.49.49,0,0,0,.54-.54V102.66h3.92Z"/><path d="M99,102.66v19.57H95.19l-7.58-13.29v13.29h-3.7V102.66H88l7.31,12.86V102.66Z"/></g></g></svg>