<?xml version="1.0" standalone="no"?>
<!DOCTYPE svg PUBLIC "-//W3C//DTD SVG 20010904//EN"
 "http://www.w3.org/TR/2001/REC-SVG-20010904/DTD/svg10.dtd">
<svg version="1.0" xmlns="http://www.w3.org/2000/svg"
 width="792.000000pt" height="792.000000pt" viewBox="0 0 792.000000 792.000000"
 preserveAspectRatio="xMidYMid meet">
<metadata>
Created by potrace 1.11, written by Peter Selinger 2001-2013
</metadata>
<g transform="translate(0.000000,792.000000) scale(0.100000,-0.100000)"
fill="#000000" stroke="none">
<path d="M3149 7353 c-13 -21 -28 -41 -33 -45 -6 -4 -8 -8 -4 -8 3 0 -23 -51
-59 -112 -37 -62 -79 -135 -95 -163 -16 -27 -33 -57 -38 -65 -6 -8 -60 -103
-121 -210 -62 -107 -117 -198 -123 -202 -6 -4 -7 -8 -3 -8 4 0 -8 -25 -28 -55
-19 -31 -35 -59 -35 -64 0 -4 -8 -19 -18 -32 -11 -13 -32 -49 -49 -79 -43 -80
-57 -103 -69 -120 -10 -14 -37 -62 -90 -160 -11 -19 -22 -37 -25 -40 -3 -3 -9
-12 -13 -20 -4 -8 -12 -24 -19 -35 -16 -26 -178 -307 -197 -343 -8 -15 -17
-29 -20 -32 -3 -3 -14 -23 -25 -45 -11 -22 -23 -42 -26 -45 -4 -3 -15 -21 -26
-40 -31 -56 -93 -164 -103 -180 -15 -22 -261 -450 -279 -485 -9 -16 -21 -35
-28 -42 -6 -7 -15 -23 -19 -36 -4 -12 -9 -24 -13 -27 -7 -6 -25 -37 -53 -90
-10 -19 -27 -48 -38 -65 -11 -16 -23 -37 -27 -45 -3 -8 -26 -47 -50 -87 -24
-39 -43 -74 -43 -77 0 -3 -24 -45 -54 -94 -29 -49 -57 -99 -60 -110 -4 -12
-12 -22 -17 -22 -5 0 -9 -5 -9 -11 0 -6 -15 -37 -34 -68 -19 -31 -43 -72 -53
-91 -11 -19 -127 -222 -258 -450 -131 -228 -252 -437 -267 -465 -16 -27 -33
-57 -38 -65 -38 -60 -130 -222 -130 -230 0 -6 -4 -10 -9 -10 -5 0 -11 -8 -14
-17 -6 -18 -43 -86 -102 -183 -18 -30 -42 -71 -53 -90 -90 -160 -147 -256
-155 -261 -5 -3 -9 -10 -9 -15 0 -5 -22 -46 -49 -92 -27 -45 -49 -87 -49 -91
0 -5 -5 -11 -12 -13 -7 -3 3 -31 28 -79 21 -40 41 -76 44 -79 5 -4 101 -167
150 -254 10 -18 24 -44 32 -57 7 -13 15 -26 18 -29 3 -3 11 -16 18 -30 7 -14
24 -46 40 -72 33 -57 125 -215 143 -249 8 -13 16 -26 19 -29 3 -3 14 -23 25
-45 11 -22 23 -42 26 -45 3 -3 14 -21 24 -40 9 -19 24 -43 33 -52 8 -10 11
-18 7 -18 -4 0 -1 -8 7 -17 8 -10 35 -54 60 -98 25 -44 60 -106 79 -137 l33
-58 3161 0 c1738 0 3165 4 3171 8 5 4 23 30 38 57 50 89 75 132 142 247 37 62
77 131 89 153 13 22 46 80 74 128 28 49 51 93 51 98 0 5 4 9 8 9 5 0 19 23 32
50 13 28 27 50 32 50 4 0 8 6 8 13 0 7 11 29 25 50 14 20 22 37 18 37 -4 0 -3
4 2 8 13 9 235 390 235 403 0 5 4 9 8 9 4 0 13 13 19 29 8 23 8 34 -2 48 -6
10 -25 43 -42 73 -36 66 -169 295 -191 330 -9 14 -17 27 -17 30 0 3 -8 16 -16
30 -46 72 -89 149 -89 159 0 6 -4 11 -9 11 -5 0 -11 8 -15 18 -3 9 -19 40 -36
67 -17 28 -35 59 -40 70 -6 11 -19 34 -29 50 -11 17 -28 46 -39 65 -37 68
-245 425 -252 433 -4 5 -14 -4 -23 -20 -45 -85 -123 -218 -129 -221 -5 -2 -8
-8 -8 -12 0 -5 -14 -33 -31 -62 -18 -29 -44 -75 -59 -103 -67 -120 -84 -150
-92 -153 -4 -2 -8 -8 -8 -14 0 -5 -17 -40 -39 -76 -21 -37 -48 -83 -58 -102
-11 -19 -43 -74 -72 -122 -28 -48 -51 -91 -51 -97 0 -6 -4 -11 -10 -11 -5 0
-10 -4 -10 -10 0 -9 -89 -172 -107 -195 -8 -11 -34 -56 -56 -98 -7 -12 -19
-32 -27 -43 l-15 -21 -2373 0 c-1304 0 -2372 4 -2372 8 0 8 56 108 88 159 9
14 17 27 17 30 0 3 13 24 28 47 15 24 27 46 27 51 0 4 7 17 15 27 13 17 266
451 408 700 22 39 59 103 83 142 24 40 44 75 44 78 0 3 12 24 27 48 14 23 40
67 56 97 17 30 33 57 36 60 3 3 19 30 35 60 16 30 35 62 42 71 8 8 14 21 14
27 0 6 6 17 12 24 7 7 20 27 28 43 8 17 19 37 26 45 6 8 25 40 41 70 17 30 44
78 60 106 17 27 41 70 55 95 14 24 49 85 78 134 29 50 64 110 78 135 14 25 33
57 43 72 11 14 19 29 19 33 0 3 20 39 43 78 24 40 55 92 69 117 53 95 99 169
107 174 4 3 17 -12 27 -34 10 -22 22 -40 27 -40 4 0 7 -5 7 -11 0 -12 76 -145
97 -170 7 -9 10 -19 6 -22 -3 -4 -1 -7 5 -7 7 0 12 -4 12 -10 0 -5 18 -39 40
-75 22 -36 40 -67 40 -69 0 -2 24 -43 53 -92 29 -49 56 -96 60 -104 4 -8 15
-28 26 -45 51 -84 161 -278 161 -286 0 -5 5 -9 10 -9 6 0 10 -4 10 -9 0 -9
196 -350 209 -364 4 -4 49 63 98 150 50 87 100 174 111 193 12 19 29 51 40 70
11 19 67 117 125 218 58 100 102 182 99 182 -4 0 -2 4 4 8 9 6 68 106 205 349
10 17 28 49 41 70 13 21 32 55 43 76 l20 38 23 -26 c12 -14 22 -33 22 -41 0
-8 5 -14 10 -14 6 0 10 -6 10 -13 0 -8 9 -24 20 -37 11 -12 17 -26 15 -30 -3
-5 -1 -10 3 -12 4 -1 19 -23 33 -48 31 -55 40 -70 168 -289 55 -96 101 -178
101 -182 0 -5 3 -9 8 -9 4 0 13 -15 21 -32 8 -18 27 -52 43 -75 15 -23 28 -46
28 -51 0 -5 8 -20 18 -33 11 -13 32 -49 49 -79 16 -30 63 -111 103 -180 40
-69 82 -142 94 -162 11 -21 25 -39 29 -40 8 -3 41 48 88 137 12 22 25 42 28
45 4 3 12 16 18 30 7 14 26 48 42 75 16 28 36 61 44 75 8 14 39 68 69 120 30
52 84 145 118 205 35 61 68 112 72 113 4 2 8 9 8 16 0 6 20 45 45 85 25 40 45
79 45 86 0 7 4 15 8 17 10 3 152 246 152 259 0 4 3 9 8 11 4 2 17 21 29 44
l22 41 -61 104 c-33 57 -70 122 -83 144 -13 22 -56 96 -95 165 -40 69 -81 140
-92 159 -21 36 -178 306 -222 381 -15 25 -29 53 -33 63 -3 9 -9 17 -14 17 -5
0 -9 5 -9 11 0 12 -76 145 -97 170 -7 9 -10 19 -6 22 3 4 1 7 -5 7 -7 0 -12 4
-12 9 0 12 -83 155 -92 159 -5 2 -8 8 -8 13 0 7 -73 138 -100 179 -6 8 -14 24
-20 35 -5 11 -21 38 -35 60 -14 22 -28 47 -32 55 -4 8 -27 49 -51 90 -45 74
-63 106 -103 178 -28 49 -117 203 -129 222 -5 8 -53 92 -107 185 -53 94 -100
172 -103 175 -3 3 -19 32 -37 65 -17 33 -35 61 -40 62 -7 3 -140 -217 -152
-251 -2 -6 -7 -13 -10 -16 -4 -3 -12 -16 -19 -30 -6 -14 -16 -32 -22 -40 -20
-31 -100 -172 -100 -177 0 -3 -8 -17 -19 -31 -10 -15 -30 -49 -46 -77 -50 -92
-170 -300 -175 -305 -3 -3 -13 -21 -22 -40 -10 -19 -26 -48 -36 -65 -9 -16
-42 -73 -72 -125 -30 -52 -60 -104 -67 -115 -6 -11 -19 -35 -29 -53 -19 -37
-21 -36 -55 28 -13 25 -27 47 -30 50 -3 3 -25 41 -49 85 -24 44 -46 82 -49 85
-3 3 -14 20 -23 38 -10 17 -26 47 -35 64 -10 18 -20 35 -24 38 -3 3 -20 32
-39 65 -40 72 -48 86 -140 245 -40 69 -84 145 -97 168 -14 24 -38 65 -54 90
-15 26 -35 63 -44 82 -9 19 -22 41 -29 50 -8 8 -31 47 -51 85 -21 39 -41 72
-45 75 -3 3 -16 24 -27 48 l-21 43 -23 -38z"/>
</g>
</svg>
